<svg viewBox="0 0 1200 630" xmlns="http://www.w3.org/2000/svg">
  <rect width="1200" height="630" fill="#0F172A"/>
  <ellipse cx="600" cy="140" rx="390" ry="180" fill="#2DD4BF" opacity="0.08"/>
  <ellipse cx="1020" cy="360" rx="280" ry="210" fill="#A78BFA" opacity="0.07"/>
  <circle cx="92" cy="92" r="9" fill="#2DD4BF" opacity="0.9"/>
  <text x="120" y="100" font-family="monospace" font-size="22" fill="#2DD4BF" opacity="0.8">zilton-portfolio.vercel.app</text>
  <rect x="92" y="175" width="262" height="46" rx="23" fill="#2DD4BF" opacity="0.12"/>
  <circle cx="124" cy="198" r="7" fill="#2DD4BF"/>
  <text x="144" y="204" font-family="sans-serif" font-size="21" font-weight="500" fill="#2DD4BF">Available for hire</text>
  <text x="92" y="310" font-family="sans-serif" font-size="74" font-weight="700" fill="#2DD4BF">Zilton Tuaire Abdul</text>
  <text x="96" y="378" font-family="sans-serif" font-size="32" font-weight="400" fill="#94A3B8">Full Stack Developer · Python · React · IoT</text>
  <line x1="92" y1="428" x2="1108" y2="428" stroke="#1E293B" stroke-width="2"/>
  <rect x="92" y="464" width="134" height="50" rx="25" fill="#1E293B"/>
  <text x="159" y="495" font-family="sans-serif" font-size="21" fill="#94A3B8" text-anchor="middle">Python</text>
  <rect x="240" y="464" width="116" height="50" rx="25" fill="#1E293B"/>
  <text x="298" y="495" font-family="sans-serif" font-size="21" fill="#94A3B8" text-anchor="middle">React</text>
  <rect x="370" y="464" width="158" height="50" rx="25" fill="#1E293B"/>
  <text x="449" y="495" font-family="sans-serif" font-size="21" fill="#94A3B8" text-anchor="middle">FastAPI</text>
  <rect x="542" y="464" width="176" height="50" rx="25" fill="#1E293B"/>
  <text x="630" y="495" font-family="sans-serif" font-size="21" fill="#94A3B8" text-anchor="middle">PostgreSQL</text>
  <rect x="732" y="464" width="112" height="50" rx="25" fill="#1E293B"/>
  <text x="788" y="495" font-family="sans-serif" font-size="21" fill="#94A3B8" text-anchor="middle">IoT</text>
  <rect x="858" y="464" width="96" height="50" rx="25" fill="#1E293B"/>
  <text x="906" y="495" font-family="sans-serif" font-size="21" fill="#94A3B8" text-anchor="middle">Git</text>
  <rect x="988" y="270" width="120" height="120" rx="28" fill="#1E293B"/>
  <text x="1048" y="348" font-family="sans-serif" font-size="56" text-anchor="middle" fill="#2DD4BF">&lt;/&gt;</text>
  <defs>
    <linearGradient id="grad" x1="0" y1="0" x2="1" y2="0">
      <stop offset="0%" stop-color="#2DD4BF"/>
      <stop offset="100%" stop-color="#A78BFA"/>
    </linearGradient>
  </defs>
</svg>
